# Blender 3.1.2
# www.blender.org
mtllib MARWING.mtl
o Marwing
v -0.600000 -0.640000 -0.100000
v 0.000000 -0.100000 2.400000
v -0.600000 0.440000 -0.100000
v -3.600000 -0.100000 -0.100000
v 0.000000 0.710000 -1.100000
v 0.000000 -0.910000 -0.100000
v 0.000000 -0.100000 -0.900000
v -0.850000 -0.370000 -0.100000
v -0.850000 0.170000 -0.100000
v -0.550000 -0.100000 -0.500000
v -0.550000 -0.100000 0.900000
v 0.000000 0.805000 0.250000
v 0.000000 0.102500 1.725000
v 0.000000 0.607500 -0.525000
v -0.500000 0.472500 -0.025000
v 0.600000 -0.640000 -0.100000
v 0.600000 0.440000 -0.100000
v 3.600000 -0.100000 -0.100000
v 0.850000 -0.370000 -0.100000
v 0.850000 0.170000 -0.100000
v 0.550000 -0.100000 -0.500000
v 0.550000 -0.100000 0.900000
v 0.500000 0.472500 -0.025000
vn -0.7855 -0.5273 0.3240
vn -0.3935 -0.8745 0.2834
vn -0.3015 -0.6700 -0.6784
vn -0.0784 -0.7981 -0.5975
vn -0.5165 0.4783 -0.7102
vn -0.8338 -0.1323 -0.5360
vn -0.0936 0.9538 0.2856
vn -0.7855 0.5273 0.3240
vn -0.0784 0.7981 -0.5975
vn -0.5165 -0.4783 -0.7102
vn -0.0936 -0.9538 0.2856
vn -0.4533 0.8637 -0.2201
vn -0.6418 0.6924 0.3298
vn -0.3691 0.8846 0.2850
vn -0.1784 0.9750 0.1324
vn 0.7855 -0.5273 0.3240
vn 0.3935 -0.8745 0.2834
vn 0.3015 -0.6700 -0.6784
vn 0.0784 -0.7981 -0.5975
vn 0.5165 0.4783 -0.7102
vn 0.8338 -0.1323 -0.5360
vn 0.0936 0.9538 0.2856
vn 0.7855 0.5273 0.3240
vn 0.0784 0.7981 -0.5975
vn 0.5165 -0.4783 -0.7102
vn 0.0936 -0.9538 0.2856
vn 0.4533 0.8637 -0.2201
vn 0.6418 0.6924 0.3298
vn 0.3691 0.8846 0.2850
vn 0.1784 0.9750 0.1324
vt 0.616014 0.973076
vt 0.674543 0.186234
vt 0.375000 0.000000
vt 0.370636 0.002274
vt 0.361482 0.252360
vt 0.358914 0.004412
vt 0.302664 0.535653
vt 0.611991 0.971649
vt 0.340171 0.814177
vt 0.001369 0.966695
vt 0.004773 0.957820
vt 0.138476 0.732813
vt 0.160828 0.995757
vt 0.375000 1.000000
vt 0.729598 0.002083
vt 0.000081 0.004412
vt 0.311212 0.779097
vt 0.394855 0.001402
vt 0.751469 0.939973
vt 0.616243 0.276430
vt 0.262670 0.207606
vt 0.360081 0.120588
vt 0.746572 0.939203
vt 0.262594 0.206801
vt 0.369040 0.161542
vt 0.180664 0.120588
vt 0.370336 0.160143
vt 0.476399 0.184015
vt 0.648980 0.542180
vt 0.001369 0.033305
vt 0.651393 0.540780
vt 0.004773 0.036320
vt 0.752461 0.343160
vt 0.998717 1.000000
vt 0.319641 0.397136
vt 0.765234 0.000000
vt 0.191716 0.874557
vt 0.998717 0.202547
vt 0.321185 0.794431
vt 0.616014 0.973076
vt 0.674543 0.186234
vt 0.358914 0.004412
vt 0.302664 0.535653
vt 0.611991 0.971649
vt 0.340171 0.814177
vt 0.001369 0.966695
vt 0.004773 0.957820
vt 0.751469 0.939973
vt 0.616243 0.276430
vt 0.262670 0.207606
vt 0.360081 0.120588
vt 0.746572 0.939203
vt 0.262594 0.206801
vt 0.369040 0.161542
vt 0.180664 0.120588
vt 0.370336 0.160143
vt 0.476399 0.184015
vt 0.648980 0.542180
vt 0.001369 0.033305
vt 0.651393 0.540780
vt 0.004773 0.036320
vt 0.998717 0.202547
vt 0.321185 0.794431
s 0
usemtl skin
f 8/19/1 1/1/1 2/3/1 11/29/1
f 2/3/2 1/1/2 6/14/2
f 6/15/3 1/2/3 7/18/3
f 8/21/4 4/11/4 10/25/4
f 9/22/5 3/6/5 7/16/5 10/26/5
f 3/7/6 5/12/6 7/17/6
f 9/24/7 4/10/7 11/30/7
f 3/8/8 9/23/8 11/31/8 2/4/8
f 4/10/9 9/24/9 10/27/9
f 1/2/10 8/20/10 10/28/10 7/18/10
f 4/11/11 8/21/11 11/32/11
f 15/38/12 12/33/12 14/36/12
f 15/38/13 13/34/13 12/33/13
f 3/9/14 2/5/14 13/35/14 15/39/14
f 3/9/15 15/39/15 14/37/15 5/13/15
f 19/48/16 22/58/16 2/3/16 16/40/16
f 2/3/17 6/14/17 16/40/17
f 6/15/18 7/18/18 16/41/18
f 19/50/19 21/54/19 18/47/19
f 20/51/20 21/55/20 7/16/20 17/42/20
f 17/43/21 7/17/21 5/12/21
f 20/53/22 22/59/22 18/46/22
f 17/44/23 2/4/23 22/60/23 20/52/23
f 18/46/24 21/56/24 20/53/24
f 16/41/25 7/18/25 21/57/25 19/49/25
f 18/47/26 22/61/26 19/50/26
f 23/62/27 14/36/27 12/33/27
f 23/62/28 12/33/28 13/34/28
f 17/45/29 23/63/29 13/35/29 2/5/29
f 17/45/30 5/13/30 14/37/30 23/63/30
